<?xml version="1.0" encoding="utf-8"?>
<!-- Generator: Adobe Illustrator 26.4.1, SVG Export Plug-In . SVG Version: 6.00 Build 0)  -->
<svg version="1.1" id="Layer_1" xmlns="http://www.w3.org/2000/svg" xmlns:xlink="http://www.w3.org/1999/xlink" x="0px" y="0px"
	 viewBox="0 0 500 500" style="enable-background:new 0 0 500 500;" xml:space="preserve">
<style type="text/css">
	.st0{fill:#14B8A6;}
</style>
<g>
	<g>
		<path class="st0" d="M248.4,95c1.6,0,3.2,0,4.8,0c1.7,0.7,3.5,1.5,5.2,2.2c37.2,15.5,74.5,31,111.8,46.3c5,2,9,4.7,10.8,10
			c0,24.3,0,48.6,0,73c-0.2,1-0.4,1.9-0.5,2.9c-0.5,5-0.8,10-1.5,15c-5.1,35-18.3,66.6-39.9,94.6c-22,28.6-49.9,49.8-83.2,63.6
			c-3.3,1.4-6.6,1.4-9.9,0.1c-21.3-8.8-40.7-20.6-57.6-36.1c-44.6-40.7-67.1-91.4-67.6-151.8c-0.2-18.7,0-37.4,0-56.1
			c0-8.4,2.2-11.6,10-14.8C169.9,127.6,209.1,111.3,248.4,95z M357.6,198.9c-0.2,0-0.5,0-0.7,0c0-10.7-0.1-21.3,0-32
			c0-2-0.5-3-2.4-3.8c-33.8-14-67.6-28.1-101.4-42c-1.3-0.5-3.2-0.5-4.5,0c-33.8,14-67.6,28-101.4,42c-1.9,0.8-2.5,1.7-2.5,3.7
			c0.1,16.5-0.4,33,0.2,49.4c0.4,11.6,1.2,23.4,3.6,34.7c12.6,58.4,46.2,100.5,100,126.5c1.7,0.8,3,0.9,4.8,0
			c26.1-12.1,48.1-29.3,65.8-52c19.8-25.3,32.2-53.9,36.1-85.8C356.7,226.2,356.8,212.5,357.6,198.9z"/>
	</g>
	<g>
		<path class="st0" d="M237.5,256.3c0.9-0.9,1.7-1.6,2.5-2.4c16.2-16.2,32.4-32.4,48.5-48.6c3.5-3.6,7.6-5.2,12.6-3.8
			c8.3,2.4,11.5,12,6.3,18.9c-0.7,1-1.6,1.8-2.4,2.7c-19.2,19.2-38.3,38.4-57.5,57.5c-6.6,6.6-13.2,6.6-19.9,0
			c-10.7-10.6-21.3-21.3-31.9-32c-3.5-3.5-4.8-7.6-3.3-12.4c1.4-4.6,4.7-7.4,9.4-8.3c4.4-0.8,8.1,0.8,11.2,3.9
			c7.4,7.4,14.8,14.8,22.1,22.2C235.8,254.7,236.6,255.4,237.5,256.3z"/>
	</g>
</g>
</svg>
