<?xml version="1.0" encoding="utf-8"?>
<!-- Generator: Adobe Illustrator 26.4.1, SVG Export Plug-In . SVG Version: 6.00 Build 0)  -->
<svg version="1.1" id="Layer_1" xmlns="http://www.w3.org/2000/svg" xmlns:xlink="http://www.w3.org/1999/xlink" x="0px" y="0px"
	 viewBox="0 0 500 500" style="enable-background:new 0 0 500 500;" xml:space="preserve">
<style type="text/css">
	.st0{fill:#14B8A6;}
</style>
<g>
	<g>
		<path class="st0" d="M276.3,234.4c29.9-29.9,59.6-59.6,89.2-89.2c1.6-1.6,3.1-3.2,4.8-4.6c5.4-4.5,12.8-4.4,17.6,0.2
			c5,4.8,5.3,12.5,0.5,18c-3.1,3.5-6.5,6.7-9.7,9.9c-26.7,26.7-53.3,53.3-80,80c-1.3,1.3-2.9,2.2-4.5,3.5c8,14.9,9.7,29.7,4.1,44.9
			c-4.3,11.6-11.8,20.5-22.5,26.7c-20.8,12.2-47.7,8-64-10c-16.4-18-17.8-45-3.8-64.7C219.9,232.2,246.2,219.1,276.3,234.4z
			 M275.6,278.9c-0.1-14.4-11.5-25.5-25.9-25.4c-14.4,0.1-25.5,11.4-25.4,25.9c0.1,14.4,11.5,25.5,25.9,25.4
			C264.5,304.7,275.7,293.4,275.6,278.9z"/>
	</g>
	<g>
		<path class="st0" d="M82.4,268.8c3.8-73.5,56.9-134.9,126-152.2c37.4-9.4,73.9-6.2,109.4,9.1c8.8,3.8,12.2,10.9,8.9,18.2
			c-3.2,7.1-10.4,9.2-19.1,5.5c-59.7-24.9-123.6-10.8-165.1,36.9c-21.8,25-33.2,54.4-34.4,87.7c-0.1,2.6-0.2,5.3-0.7,7.8
			c-1.3,6.1-6.6,10.3-12.5,10.2c-6-0.1-11.4-4.3-12.3-10.4C82,277.9,82.4,274,82.4,268.8z"/>
	</g>
	<g>
		<path class="st0" d="M417.7,270.3c0,3.2,0.3,6.5-0.1,9.7c-0.7,7.1-6.2,12.1-12.8,12.1c-6.4,0-11.8-4.6-12.7-11.5
			c-0.7-5.8,0.1-11.8-1.3-17.4c-3.3-14-7.6-27.8-11.2-41.8c-0.9-3.7-1.5-8-0.5-11.6c1.3-5,5.7-7.7,11-7.9c6.2-0.2,10.3,2.9,12.7,8.4
			C411.5,229.3,416.4,249.3,417.7,270.3z"/>
	</g>
</g>
</svg>
