<?xml version="1.0" encoding="utf-8"?>
<!-- Generator: Adobe Illustrator 26.4.1, SVG Export Plug-In . SVG Version: 6.00 Build 0)  -->
<svg version="1.1" id="Layer_1" xmlns="http://www.w3.org/2000/svg" xmlns:xlink="http://www.w3.org/1999/xlink" x="0px" y="0px"
	 viewBox="0 0 500 500" style="enable-background:new 0 0 500 500;" xml:space="preserve">
<style type="text/css">
	.st0{fill:#14B8A6;}
</style>
<path class="st0" d="M132.3,425.4c46.9-109.1,101.2-234.8,148.8-343.3c0,0,7.2-16.3,7.2-16.3l5.6,17.1
	c23.8,74.2,51.8,154.2,74.8,228.4c0,0,6,19.3,6,19.3c-10.9-4.2-36.6-14.1-47.8-18.5c-67.6-26.7-135.5-54.2-201.5-84.6
	c0,0,0.7-1.8,0.7-1.8c20,5.8,39.9,12,59.7,18.4c58.9,18.9,118.9,39.7,177.1,61c0,0-12.7,12-12.7,12c-12.3-38.1-23.5-76.6-34.8-115
	c-8.5-28.7-25.8-86.5-34.5-115.1c0,0,12.8,0.8,12.8,0.8c-36.2,77.6-82.7,176.2-119.4,253.9c0,0-40.1,84.5-40.1,84.5
	S132.3,425.4,132.3,425.4L132.3,425.4z"/>
<circle class="st0" cx="287.9" cy="66.8" r="18.8"/>
<circle class="st0" cx="371.9" cy="326.2" r="18.8"/>
<circle class="st0" cx="128.8" cy="227.2" r="18.8"/>
<circle class="st0" cx="131.3" cy="430.2" r="18.8"/>
</svg>
