
<svg version="1.1" id="Layer_1" xmlns="http://www.w3.org/2000/svg" xmlns:xlink="http://www.w3.org/1999/xlink" x="0px" y="0px"
	 viewBox="0 0 500 500" style="enable-background:new 0 0 500 500;" xml:space="preserve">
<style type="text/css">
	.st0{fill:#14B8A6;}
</style>
<g>
	<g>
		<path class="st0" d="M419,250.7c-2.1,4.6-5.7,6.4-10.8,6.1c-5-0.3-10-0.1-14.7-0.1C386.2,321,354,366,292,385.8
			c-46.8,14.9-90.5,5.2-130.1-24.5c10.2-11.9,20-23.4,29.8-34.9c36.1,24.4,73.2,27.6,110.6,4.6c27.1-16.7,41.2-42.1,44.5-74.1
			c-5.6,0-10.8,0-16,0c-1.6,0-3.3,0-4.9,0c-3.7,0.1-6.4-1.5-7.9-4.8c-1.5-3.3-0.9-6.4,1.5-9.1c6.5-7.5,13.1-15,19.6-22.5
			c9.6-11,19.1-21.9,29-33.2c3.2,3.7,6.4,7.2,9.5,10.8c12.4,14.3,24.9,28.5,37.3,42.8c1.5,1.7,2.8,3.6,4.1,5.4
			C419,247.7,419,249.2,419,250.7z"/>
	</g>
	<g>
		<path class="st0" d="M155.2,256.5c6.7,0,13.1,0.1,19.6,0c4-0.1,7.2,1.1,8.9,4.8c1.7,3.8,0.5,6.9-2.1,9.9
			c-15.6,17.8-31.1,35.6-46.6,53.5c-0.4,0.5-0.9,0.9-1.5,1.4c-9.2-10.6-18.4-21-27.5-31.5c-6.7-7.7-13.3-15.4-20.1-23
			c-2.7-3-4.3-6.1-2.5-10.1c1.8-4.1,5.3-5.1,9.5-5c5.2,0.1,10.4,0,15.2,0c2.4-71.1,35.2-119.5,102.9-142.9
			c50.7-13.3,95.8-2.8,135.9,31.3c-10.2,11.9-20.1,23.5-29.8,34.8c-37.9-30.2-77.9-35.5-119.4-9.3
			C164.2,191.5,152.5,228.4,155.2,256.5z"/>
	</g>
</g>
</svg>
